# xmcd
#
# Track frame offsets:
#	150
#	17100
#	33375
#	51450
#	69903
#	85278
#	104478
#	125180
#	146180
#	168155
#	186308
#
# Disc length: 2735 seconds
#
# Revision: 5
# Processed by: cddbd v1.5.2PL0 Copyright (c) Steve Scherf et al.
# Submitted via: EasyCDDAExtractor 12.0.1.1
#
DISCID=a20aad0b
DTITLE=Lucero - Siempre Contigo
DYEAR=1994
DGENRE=Latin
TTITLE0=Volvamos A Empezar
TTITLE1=Como Perro Al Sol
TTITLE2=24 Horas
TTITLE3=Quien Soy Yo
TTITLE4=Alguien
TTITLE5=Te Extraño Tanto
TTITLE6=Palabras
TTITLE7=Dejame Ir
TTITLE8=Regresar
TTITLE9=Fotografiame
TTITLE10=Siempre Contigo
EXTD=
EXTT0=
EXTT1=
EXTT2=
EXTT3=
EXTT4=
EXTT5=
EXTT6=
EXTT7=
EXTT8=
EXTT9=
EXTT10=
PLAYORDER=
